<mxfile host="app.diagrams.net" agent="Mozilla/5.0 (Windows NT 10.0; Win64; x64) AppleWebKit/537.36 (KHTML, like Gecko) Chrome/139.0.0.0 Safari/537.36 Edg/139.0.0.0" version="28.1.1">
  <diagram name="PÃ¡gina-1" id="Zmsrd9I4OVbQhpZ0-ADq">
    <mxGraphModel dx="862" dy="450" grid="1" gridSize="10" guides="1" tooltips="1" connect="1" arrows="1" fold="1" page="1" pageScale="1" pageWidth="827" pageHeight="1169" math="0" shadow="0">
      <root>
        <mxCell id="0" />
        <mxCell id="1" parent="0" />
        <mxCell id="wTauc_Wt93mkvhkHb8YH-31" value="Board" style="swimlane;childLayout=stackLayout;horizontal=1;startSize=50;horizontalStack=0;rounded=1;fontSize=14;fontStyle=0;strokeWidth=2;resizeParent=0;resizeLast=1;shadow=0;dashed=0;align=center;arcSize=4;whiteSpace=wrap;html=1;" vertex="1" parent="1">
          <mxGeometry x="20" y="20" width="100" height="100" as="geometry" />
        </mxCell>
        <mxCell id="wTauc_Wt93mkvhkHb8YH-32" value="+ id: long&lt;br&gt;+ name: string" style="align=left;strokeColor=none;fillColor=none;spacingLeft=4;spacingRight=4;fontSize=12;verticalAlign=top;resizable=0;rotatable=0;part=1;html=1;whiteSpace=wrap;" vertex="1" parent="wTauc_Wt93mkvhkHb8YH-31">
          <mxGeometry y="50" width="100" height="50" as="geometry" />
        </mxCell>
        <mxCell id="wTauc_Wt93mkvhkHb8YH-33" value="BoardColumn" style="swimlane;childLayout=stackLayout;horizontal=1;startSize=50;horizontalStack=0;rounded=1;fontSize=14;fontStyle=0;strokeWidth=2;resizeParent=0;resizeLast=1;shadow=0;dashed=0;align=center;arcSize=4;whiteSpace=wrap;html=1;" vertex="1" parent="1">
          <mxGeometry x="170" y="120" width="120" height="120" as="geometry" />
        </mxCell>
        <mxCell id="wTauc_Wt93mkvhkHb8YH-34" value="+ id: long&lt;br&gt;+ name: string&lt;div&gt;+ type: string&lt;/div&gt;&lt;div&gt;+ order: int&lt;/div&gt;" style="align=left;strokeColor=none;fillColor=none;spacingLeft=4;spacingRight=4;fontSize=12;verticalAlign=top;resizable=0;rotatable=0;part=1;html=1;whiteSpace=wrap;" vertex="1" parent="wTauc_Wt93mkvhkHb8YH-33">
          <mxGeometry y="50" width="120" height="70" as="geometry" />
        </mxCell>
        <mxCell id="wTauc_Wt93mkvhkHb8YH-35" value="" style="edgeStyle=entityRelationEdgeStyle;fontSize=12;html=1;endArrow=ERoneToMany;rounded=0;exitX=0.993;exitY=0.21;exitDx=0;exitDy=0;exitPerimeter=0;entryX=0;entryY=0.25;entryDx=0;entryDy=0;" edge="1" parent="1" source="wTauc_Wt93mkvhkHb8YH-31" target="wTauc_Wt93mkvhkHb8YH-33">
          <mxGeometry width="100" height="100" relative="1" as="geometry">
            <mxPoint x="180" y="180" as="sourcePoint" />
            <mxPoint x="230" y="190" as="targetPoint" />
          </mxGeometry>
        </mxCell>
        <mxCell id="wTauc_Wt93mkvhkHb8YH-36" value="1:N" style="edgeLabel;html=1;align=center;verticalAlign=middle;resizable=0;points=[];" vertex="1" connectable="0" parent="wTauc_Wt93mkvhkHb8YH-35">
          <mxGeometry x="0.0044" y="1" relative="1" as="geometry">
            <mxPoint as="offset" />
          </mxGeometry>
        </mxCell>
        <mxCell id="wTauc_Wt93mkvhkHb8YH-37" value="Card" style="swimlane;childLayout=stackLayout;horizontal=1;startSize=50;horizontalStack=0;rounded=1;fontSize=14;fontStyle=0;strokeWidth=2;resizeParent=0;resizeLast=1;shadow=0;dashed=0;align=center;arcSize=4;whiteSpace=wrap;html=1;" vertex="1" parent="1">
          <mxGeometry x="350" y="240" width="170" height="120" as="geometry" />
        </mxCell>
        <mxCell id="wTauc_Wt93mkvhkHb8YH-38" value="+ id: long&lt;div&gt;+ title: string&lt;/div&gt;&lt;div&gt;+ description: string&lt;/div&gt;&lt;div&gt;+ createdAt: OffsetDateTime&lt;/div&gt;" style="align=left;strokeColor=none;fillColor=none;spacingLeft=4;spacingRight=4;fontSize=12;verticalAlign=top;resizable=0;rotatable=0;part=1;html=1;whiteSpace=wrap;" vertex="1" parent="wTauc_Wt93mkvhkHb8YH-37">
          <mxGeometry y="50" width="170" height="70" as="geometry" />
        </mxCell>
        <mxCell id="wTauc_Wt93mkvhkHb8YH-41" value="" style="edgeStyle=entityRelationEdgeStyle;fontSize=12;html=1;endArrow=ERoneToMany;rounded=0;entryX=0;entryY=0.25;entryDx=0;entryDy=0;exitX=1;exitY=0.25;exitDx=0;exitDy=0;" edge="1" parent="1" source="wTauc_Wt93mkvhkHb8YH-33" target="wTauc_Wt93mkvhkHb8YH-37">
          <mxGeometry width="100" height="100" relative="1" as="geometry">
            <mxPoint x="460" y="150" as="sourcePoint" />
            <mxPoint x="551" y="175" as="targetPoint" />
          </mxGeometry>
        </mxCell>
        <mxCell id="wTauc_Wt93mkvhkHb8YH-42" value="1:N" style="edgeLabel;html=1;align=center;verticalAlign=middle;resizable=0;points=[];" vertex="1" connectable="0" parent="wTauc_Wt93mkvhkHb8YH-41">
          <mxGeometry x="0.0044" y="1" relative="1" as="geometry">
            <mxPoint as="offset" />
          </mxGeometry>
        </mxCell>
        <mxCell id="wTauc_Wt93mkvhkHb8YH-43" value="BlockedCard" style="swimlane;childLayout=stackLayout;horizontal=1;startSize=50;horizontalStack=0;rounded=1;fontSize=14;fontStyle=0;strokeWidth=2;resizeParent=0;resizeLast=1;shadow=0;dashed=0;align=center;arcSize=4;whiteSpace=wrap;html=1;" vertex="1" parent="1">
          <mxGeometry x="580" y="360" width="180" height="140" as="geometry">
            <mxRectangle x="290" y="360" width="120" height="50" as="alternateBounds" />
          </mxGeometry>
        </mxCell>
        <mxCell id="wTauc_Wt93mkvhkHb8YH-44" value="+ id: long&lt;div&gt;+ blockCause: string&lt;/div&gt;&lt;div&gt;+ blockedAt: OffsetDateTime&lt;/div&gt;&lt;div&gt;+ unblockCouse: string&lt;br&gt;&lt;/div&gt;&lt;div&gt;+ unblockedAt: OffsetDateTime&lt;/div&gt;" style="align=left;strokeColor=none;fillColor=none;spacingLeft=4;spacingRight=4;fontSize=12;verticalAlign=top;resizable=0;rotatable=0;part=1;html=1;whiteSpace=wrap;" vertex="1" parent="wTauc_Wt93mkvhkHb8YH-43">
          <mxGeometry y="50" width="180" height="90" as="geometry" />
        </mxCell>
        <mxCell id="wTauc_Wt93mkvhkHb8YH-45" value="" style="edgeStyle=entityRelationEdgeStyle;fontSize=12;html=1;endArrow=ERoneToMany;rounded=0;entryX=0;entryY=0.25;entryDx=0;entryDy=0;exitX=1;exitY=0.25;exitDx=0;exitDy=0;" edge="1" parent="1" source="wTauc_Wt93mkvhkHb8YH-37" target="wTauc_Wt93mkvhkHb8YH-43">
          <mxGeometry width="100" height="100" relative="1" as="geometry">
            <mxPoint x="690" y="250" as="sourcePoint" />
            <mxPoint x="750" y="370" as="targetPoint" />
          </mxGeometry>
        </mxCell>
        <mxCell id="wTauc_Wt93mkvhkHb8YH-46" value="1:N" style="edgeLabel;html=1;align=center;verticalAlign=middle;resizable=0;points=[];" vertex="1" connectable="0" parent="wTauc_Wt93mkvhkHb8YH-45">
          <mxGeometry x="0.0044" y="1" relative="1" as="geometry">
            <mxPoint as="offset" />
          </mxGeometry>
        </mxCell>
      </root>
    </mxGraphModel>
  </diagram>
</mxfile>
